<?xml version="1.0" encoding="UTF-8"?>
<!DOCTYPE svg PUBLIC "-//W3C//DTD SVG 1.1//EN" "http://www.w3.org/Graphics/SVG/1.1/DTD/svg11.dtd">
<!-- Creator: CorelDRAW 2021 (64-Bit) -->
<svg xmlns="http://www.w3.org/2000/svg" xml:space="preserve" width="8.5in" height="11in" version="1.1" style="shape-rendering:geometricPrecision; text-rendering:geometricPrecision; image-rendering:optimizeQuality; fill-rule:evenodd; clip-rule:evenodd"
viewBox="0 0 8500 11000"
 xmlns:xlink="http://www.w3.org/1999/xlink"
 xmlns:xodm="http://www.corel.com/coreldraw/odm/2003">
 <defs>
  <style type="text/css">
   <![CDATA[
    .fil3 {fill:none}
    .fil1 {fill:#111312}
    .fil0 {fill:yellow}
    .fil2 {fill:white}
   ]]>
  </style>
 </defs>
 <g id="Layer_x0020_1">
  <metadata id="CorelCorpID_0Corel-Layer"/>
  <g id="_2067877598640">
   <path class="fil0" d="M1918.9 7089.53l0 0c-0.07,-315.11 1.89,-630.23 0.65,-945.32 -1.18,-304.15 -11.3,-638.61 4.54,-937.63 15.99,-301.86 102.05,-523.31 233.97,-715.17 142.6,-207.39 353.58,-376.12 591.91,-477.27 222.02,-94.22 467.8,-129.82 704.13,-83.38 50.52,9.93 97.27,20.76 140.93,32.65 324.23,88.3 478.25,235.08 743.68,504.28 88.63,89.89 144.93,151.28 227.57,241.28l226.74 249.63 274.25 458.87 323.8 -294.21c2.07,95.05 11.39,190.48 -28.63,265.82 -28.67,53.98 -85.75,115.91 -151.8,134.74 -113.32,32.29 -216.28,-65.75 -280.94,-142.21 -20.71,-24.49 -42.04,-47.17 -67.48,-76.41 -90.04,-103.46 -180.01,-219.84 -271.72,-318.07 -276.32,-295.99 -545.96,-658.33 -924,-822.24 -320.61,-139 -672.32,-89.3 -951.54,51.33 -218.96,110.28 -468.13,376.32 -550.27,613.46 -110.74,319.69 -74.17,732.9 -74.72,1095.22 -0.59,388.19 -2.83,776.44 -3.03,1164.63l117.74 0c-0.68,-390.69 0.61,-781.55 2.74,-1172.2 1.92,-350.27 -41.8,-791.72 89.35,-1076.59 117.42,-255.09 340.59,-471.79 604,-567.05 359.33,-129.95 639.06,-60.87 917.5,116.69 208.59,133.01 689.59,672.04 864.74,889.66 118.26,146.93 295.33,379.28 504.89,377.44 87.58,-0.78 156.06,-42.32 205.83,-85.97 137.02,-120.17 122.48,-292.26 120.46,-463.37 -4.51,-380.98 -10.94,-779.9 -7.16,-1155.35l338.6 -8.72c3.01,22.45 1.04,32.21 2.13,52.88 0.48,9.13 0.33,11.62 2.14,20.63 3.84,19.06 -1.34,5.27 6.69,16.55 7.89,-35.69 7.01,-74.84 -3.41,-110.28 33.12,18.92 -4.02,-1.7 18.88,16.24 27.26,21.35 38.88,9.17 62.7,25.99l6.78 77c1.35,-1.69 2.63,-4.13 3.25,-5.6 0.62,-1.48 2.26,-3.91 2.94,-5.79l5.24 -34.67c0.13,-14.48 -1.46,-32.52 -1.91,-48.02l341.64 1.96c6.29,83.28 -2.79,467.22 -2.63,589.96 0.27,196.81 -0.6,393.05 1.56,589.88 4.85,439.89 -26.11,636.63 -250.94,928.68 -407.61,529.48 -1101.99,585.3 -1588.87,102.22 -98.74,-97.97 -194.57,-200.7 -285.54,-304.22l-416.83 -468.17c-150.44,-154.22 -260.7,-413.83 -496.81,-385.98 -155.19,18.3 -259.55,156.15 -263.97,323.85 -5.12,194.06 -0.64,395.31 -0.06,590.13 1.15,390.71 -0.56,781.44 0.51,1172.2l126.2 0c0,-390.59 3.94,-781.77 2.18,-1172.2 -0.44,-98.44 -0.08,-196.47 -1.25,-294.94 -1.13,-95.38 -8.81,-192.99 -4.4,-287.38 8.5,-181.91 179.79,-256.63 324.04,-131.22 47.07,40.92 86.68,109.61 128.44,158.74l416.78 468.4c189.33,207.82 365.81,447.65 592.34,587.75 273.12,168.91 547.05,260.48 928.67,161.46 273.83,-71.06 551.67,-286.83 683.48,-496.85 200.37,-319.26 229.43,-479.8 227.79,-944.91 -1.37,-389.97 -12.61,-791.2 -0.71,-1180.26l172.04 -3.5c-9.36,313.71 -7.35,634.86 -7.07,949.33 0.4,455.64 43.43,830.3 -205.38,1206.8 -17.5,26.48 -24.92,44.96 -42.54,71.36l-105.9 135.8c-144.64,178.78 -407.26,355.13 -639.33,427.29 -590.34,183.55 -1055.25,-90.59 -1372.83,-403.73 -111.22,-109.67 -565.86,-611.07 -675.08,-739.08 -60.53,-70.93 -144.06,-143.01 -195.22,-220.73 -18.75,-28.48 -9.87,-22.18 -39.3,-26.19 -33.52,80.29 -14.43,1518.33 -14.76,1734.06l-4.37 -690.8 -36.58 -1098.98 1087.23 1153.11 1137.37 280.72 311.81 -87.59 678.27 -694.64 102.12 -1988.57 -1256.67 -6.4 -51.7 1434.02 -239.34 -59.61 -1287.54 -1262.74 -1012.96 35.5 -484.43 387.85 -207.89 249.34 -103.75 2348.78z"/>
   <path class="fil1" d="M2204.69 7089.53l345.29 0c-0.16,-102.43 -23.2,-251.53 44.27,-257.32 65.53,-5.62 55.3,45.36 55.51,98.48 0.21,53.02 -0.98,105.84 -1.08,158.84l340.44 0c-1.07,-390.76 0.65,-781.49 -0.51,-1172.2 -0.58,-194.81 -5.06,-396.07 0.06,-590.13 4.42,-167.71 108.78,-305.56 263.97,-323.85 236.11,-27.85 346.37,231.76 496.81,385.98l416.83 468.17c90.98,103.52 186.81,206.25 285.54,304.22 486.88,483.07 1181.25,427.26 1588.87,-102.22 224.83,-292.06 255.79,-488.79 250.94,-928.68 -2.16,-196.83 -1.3,-393.07 -1.56,-589.88 -0.16,-122.75 8.91,-506.69 2.63,-589.96l-341.64 -1.96c0.45,15.5 2.04,33.54 1.91,48.02l-5.24 34.67c-0.68,1.87 -2.31,4.31 -2.94,5.79 -0.63,1.47 -1.91,3.91 -3.25,5.6 -2.68,18.89 -25.13,17.25 -50.4,14.94 -29.13,-2.67 -33.22,-3.32 -34.55,-23.89 -8.03,-11.28 -2.85,2.51 -6.69,-16.55 -1.81,-9.01 -1.66,-11.5 -2.14,-20.63 -1.09,-20.67 0.88,-30.43 -2.13,-52.88l-338.6 8.72c-3.78,375.46 2.65,774.37 7.16,1155.35 2.02,171.11 16.56,343.2 -120.46,463.37 -49.77,43.65 -118.25,85.19 -205.83,85.97 -209.56,1.84 -386.62,-230.51 -504.89,-377.44 -175.15,-217.61 -656.16,-756.65 -864.74,-889.66 -278.44,-177.56 -558.17,-246.64 -917.5,-116.69 -263.41,95.26 -486.58,311.96 -604,567.05 -131.15,284.87 -87.43,726.32 -89.35,1076.59 -2.13,390.65 -3.42,781.51 -2.74,1172.2z"/>
   <path class="fil1" d="M3115.31 7089.53l172 0c0.32,-215.73 -18.76,-1653.77 14.76,-1734.06 29.43,4.01 20.56,-2.29 39.3,26.19 51.17,77.72 134.7,149.8 195.22,220.73 109.22,128.01 563.85,629.41 675.08,739.08 317.57,313.14 782.49,587.28 1372.83,403.73 232.07,-72.17 494.69,-248.51 639.33,-427.29l105.9 -135.8c17.61,-26.41 25.04,-44.89 42.54,-71.36 248.81,-376.51 205.78,-751.16 205.38,-1206.8 -0.28,-314.47 -2.29,-635.62 7.07,-949.33l-172.04 3.5c-11.9,389.06 -0.66,790.29 0.71,1180.26 1.64,465.11 -27.42,625.66 -227.79,944.91 -131.8,210.02 -409.64,425.79 -683.48,496.85 -381.63,99.02 -655.55,7.45 -928.67,-161.46 -226.53,-140.1 -403.01,-379.93 -592.34,-587.75l-416.78 -468.4c-41.76,-49.13 -81.38,-117.82 -128.44,-158.74 -144.26,-125.41 -315.55,-50.69 -324.04,131.22 -4.41,94.39 3.26,192 4.4,287.38 1.17,98.47 0.8,196.5 1.25,294.94 1.76,390.43 -2.18,781.61 -2.18,1172.2z"/>
   <path class="fil1" d="M1918.9 7089.53l168.05 0c0.2,-388.19 2.44,-776.44 3.03,-1164.63 0.54,-362.32 -36.02,-775.52 74.72,-1095.22 82.14,-237.14 331.31,-503.19 550.27,-613.46 279.22,-140.64 630.93,-190.33 951.54,-51.33 378.04,163.91 647.68,526.25 924,822.24 91.71,98.24 181.68,214.61 271.72,318.07 25.44,29.24 46.77,51.91 67.48,76.41 64.66,76.46 167.61,174.5 280.94,142.21 66.04,-18.82 123.12,-80.76 151.8,-134.74 40.02,-75.34 30.7,-170.78 28.63,-265.82l-3.74 -1167.11 -161.62 0.46c-13.4,65.99 4.06,1069.1 2.95,1265.41 -0.24,43.8 -0.69,50.63 -29.9,67.07 -12.1,41.32 -73.39,40.73 -107.18,5.88l-59.96 -68.66c-10.99,-14 -7.54,-7.72 -13.05,-21.35 -31.19,-20.33 -187.59,-205.07 -225.55,-246.36l-226.74 -249.63c-82.65,-90 -138.95,-151.39 -227.57,-241.28 -301.18,-305.44 -458.91,-453.28 -884.6,-536.93 -490.01,-96.28 -1020.59,160.07 -1296.04,560.65 -131.92,191.85 -217.98,413.3 -233.97,715.17 -15.84,299.03 -5.72,633.48 -4.54,937.63 1.24,315.09 -0.72,630.21 -0.65,945.32z"/>
   <path class="fil2" d="M5508.4 6018.84c120.29,-1.56 278.38,-238.32 330.87,-305.14 16.37,-20.83 28.91,-42.98 9.31,-71.43 -16.18,-23.48 -33.85,-34.41 -70.85,-32.67 -12.93,16.63 -22.22,37.58 -34.48,54.07 -15.35,20.61 -21.72,27.28 -40.04,49.98 -72.83,90.31 -120.33,117.25 -199.79,178.63 -51.7,39.94 -14.24,87.32 4.98,126.57z"/>
   <path class="fil2" d="M5856.68 4264.31c-9.48,34.94 -15.17,386.94 -9.85,427.67 2.97,22.77 15.14,38.19 31.59,44.78 109.35,43.8 70.79,-106.91 72.2,-294.15 0.69,-91.24 37.05,-237.94 -93.94,-178.3z"/>
   <path class="fil2" d="M4891.94 6031.67c51.24,31.71 313.57,105.48 376.45,79.13 17.04,-44.73 7.58,-97.92 -16.2,-128 -66.56,-9.91 -109.55,-6.26 -176.37,-21.7 -47.14,-10.9 -121.19,-36.67 -165.52,-40.8 -17.7,41.29 -21.72,52.66 -18.37,111.37z"/>
   <path class="fil2" d="M5848.22 5206.44c0,62.8 -11.8,170.46 16.88,206.65l78.07 1.31c16.2,-35.4 8.44,-299.15 9.37,-359.25 0.83,-54.04 15.37,-99.59 -53.07,-91.71 -52.22,6.01 -50.24,40.26 -50.48,91.48 -0.23,50.48 -0.77,101.07 -0.77,151.52z"/>
   <path class="fil2" d="M2639.17 5372.81c20.37,-29.38 15.52,-129.87 21.3,-174.06 6.39,-48.84 28.2,-125.26 22.04,-172.17 -23.28,-17.93 -45.19,-34.18 -87.48,-30.44 -30.43,46.89 -56.23,294.73 -51.46,347.78 2.59,28.89 0.85,32.02 34.98,36.09 23.56,2.8 45.91,1.3 60.63,-7.21z"/>
   <path class="fil2" d="M2553.13 6340.83c0,67.26 -10.09,220.01 0.98,266.91 27.08,12.83 60.72,13.57 85.13,2.56l4.68 -432.17c-26.84,-9.69 -38.59,-12.31 -74.57,-11.02 -25.37,45.05 -16.23,108.38 -16.23,173.71z"/>
   <path class="fil2" d="M2549.88 5932.45l2.56 48.8c31.27,9.44 66.75,8.17 98,-0.11 7.32,-79.36 1.7,-293.44 -2.96,-370.58 -107.87,-16.19 -96.38,22.8 -96.22,110.08 0.12,70.69 -1.39,141.26 -1.39,211.81z"/>
   <path class="fil2" d="M2767.81 4860.11c30.42,-9.47 81.59,-61.96 112.15,-85.44 43.78,-33.65 76.3,-48.82 123.1,-73.84 -1.33,-45.39 -11.14,-74.43 -33.46,-103.57 -49.61,-0.71 -247.66,131.02 -263.76,183.43 -8.96,29.18 40.96,69.08 61.97,79.43z"/>
   <path class="fil2" d="M4067.35 5075.67c-113.43,51.59 47.87,181.85 117.07,249.19 28.3,27.54 56.86,66.13 97.28,50.31 55.72,-21.8 45.8,-49.89 16.8,-80.71l-185.01 -193.62c-16.08,-19.94 -20.98,-36.62 -46.14,-25.17z"/>
   <path class="fil2" d="M4444.24 5625.85c2.13,57.37 50.94,95.07 94.62,138.72 32.69,32.68 82.98,95.66 134.72,102.69 23.46,-14.66 41,-30.87 46.73,-63.36 -8.87,-21.1 -86.18,-89.61 -104.52,-108.56 -33.53,-34.64 -69.63,-78.01 -96.51,-114 -42.65,6.13 -50.5,24.69 -75.04,44.53z"/>
   <path class="fil2" d="M3616.92 4737.56c27.27,35.07 70.13,58.54 105.22,89.06 34.69,30.19 69.26,79.69 119.56,86.43 31.84,-16.65 53.57,-55.2 58.42,-89.97 -60.63,-27.84 -184.29,-155.3 -239.92,-159.62 -15.05,16.16 -38.07,50.57 -43.28,74.1z"/>
   <path class="fil2" d="M3187.37 4642.96l26.55 6.84c9.69,1.07 27.48,0.25 37.93,0.15 84.2,-0.86 153.33,21.95 187.65,17.85 16.02,-27.34 20.79,-50.63 19.5,-91.89 -51.59,-23.44 -254.39,-64.8 -280.88,-26.32 -18.37,26.68 -7.44,73.76 9.26,93.37z"/>
   <path class="fil2" d="M2549.98 7089.53l98.7 0c0.1,-53 1.29,-105.82 1.08,-158.84 -0.21,-53.12 10.02,-104.09 -55.51,-98.48 -67.46,5.79 -44.43,154.89 -44.27,257.32z"/>
   <path class="fil2" d="M5856.59 4034.12c1.33,20.57 5.41,21.22 34.55,23.89 25.27,2.31 47.72,3.95 50.4,-14.94l-6.78 -77c-23.81,-16.83 -35.44,-4.65 -62.7,-25.99 -22.9,-17.94 14.24,2.68 -18.88,-16.24 10.43,35.44 11.31,74.59 3.41,110.28z"/>
   <path class="fil2" d="M5836.85 3943.93c-11.75,13.86 -18.8,153.53 -12.2,169.69 3.69,9.03 18.76,15.15 39.14,17.76 135.47,17.38 87.69,-42.42 89.44,-116.71 0.85,-36.2 45.9,-94.41 -116.37,-70.75z"/>
  </g>
  <rect class="fil3" x="-28.59" y="-103.55" width="8613.39" height="11167.71"/>
 </g>
</svg>
